<svg width="48" height="64" viewBox="0 0 48 64" fill="none" xmlns="http://www.w3.org/2000/svg">
<circle cx="31.1317" cy="4.22339" r="4.22339" fill="#3F3D56"/>
<circle cx="42.957" cy="40.5437" r="4.22339" fill="#3F3D56"/>
<circle cx="10.8591" cy="4.22339" r="4.22339" fill="#3F3D56"/>
<path d="M26.0246 4.6956L26.077 4.70772L26.1309 4.7084C26.2065 4.70934 26.3782 4.73935 26.6614 4.82131C26.9306 4.89918 27.2607 5.01182 27.6329 5.15C28.3765 5.42605 29.2631 5.79476 30.1186 6.16569C30.973 6.53611 31.7909 6.90637 32.3957 7.1842C32.6979 7.32307 32.9466 7.43871 33.1196 7.51958C33.1393 7.52878 33.158 7.53754 33.1757 7.54582L36.104 19.2619L36.1202 19.3265L36.1527 19.3846L36.153 19.3852L36.1546 19.3881L36.1617 19.4008L36.1904 19.4533C36.216 19.5001 36.2541 19.5706 36.3034 19.6635C36.4021 19.8493 36.5457 20.1249 36.7239 20.4812C37.0803 21.1939 37.5748 22.2288 38.1246 23.5134C39.225 26.084 40.5433 29.6463 41.4214 33.62C43.1835 41.5948 43.1426 51.0686 36.2452 57.6056C29.3455 64.1446 20.4348 63.8097 13.1767 60.5935C9.54955 58.9862 6.36417 56.6688 4.09194 54.1681C1.80816 51.6546 0.5 49.0169 0.5 46.7693C0.5 41.9671 1.61171 34.5411 2.73229 28.2845C3.29138 25.1629 3.85054 22.3436 4.26995 20.3048C4.47964 19.2854 4.65435 18.4613 4.77658 17.8923C4.8377 17.6078 4.8857 17.3871 4.91839 17.2376L4.95567 17.0678L4.96518 17.0247L4.96579 17.0219L4.9693 17.0091L4.989 16.9374C5.0064 16.8744 5.03218 16.7814 5.06556 16.6625C5.13232 16.4245 5.22947 16.0825 5.35075 15.6673C5.5934 14.8365 5.93214 13.7143 6.31696 12.5467C6.7023 11.3776 7.13136 10.1707 7.5543 9.16742C7.76586 8.66561 7.97296 8.22178 8.16929 7.86229C8.36991 7.49494 8.54277 7.24674 8.67826 7.11126C8.98556 6.80395 9.51729 6.48782 10.1928 6.18527C10.8572 5.88773 11.6159 5.62263 12.3385 5.40064C13.0596 5.17911 13.7361 5.00313 14.2328 4.88248C14.4809 4.82222 14.6835 4.77591 14.8236 4.74477C14.8936 4.7292 14.948 4.71743 14.9846 4.7096L15.0005 4.70623L15.0651 4.70353C15.1343 4.70066 15.2362 4.69649 15.3666 4.69133C15.6274 4.68101 16.0021 4.66672 16.4573 4.65083C17.3678 4.61905 18.5997 4.58094 19.8861 4.55554C21.1733 4.53013 22.5111 4.51752 23.6348 4.53647C24.7806 4.55579 25.6449 4.60789 26.0246 4.6956Z" fill="white" stroke="#3F3D56"/>
<path d="M29.8636 19.4274C31.4963 19.4274 32.82 18.2929 32.82 16.8934C32.82 15.4939 31.4963 14.3594 29.8636 14.3594C28.2308 14.3594 26.9072 15.4939 26.9072 16.8934C26.9072 18.2929 28.2308 19.4274 29.8636 19.4274Z" fill="#3F3D56"/>
<path d="M12.1253 19.4274C13.7581 19.4274 15.0817 18.2929 15.0817 16.8934C15.0817 15.4939 13.7581 14.3594 12.1253 14.3594C10.4925 14.3594 9.16895 15.4939 9.16895 16.8934C9.16895 18.2929 10.4925 19.4274 12.1253 19.4274Z" fill="#3F3D56"/>
<path d="M29.4992 18.7695C30.3246 18.7695 30.9936 18.1004 30.9936 17.2751C30.9936 16.4498 30.4484 15.2243 29.4992 15.7807C28.0049 16.3652 28.0049 16.4498 28.0049 17.2751C28.0049 18.1004 28.6739 18.7695 29.4992 18.7695Z" fill="white"/>
<path d="M29.4412 18.5839C29.9077 18.5839 30.2859 18.2057 30.2859 17.7392C30.2859 17.2727 29.9077 16.8945 29.4412 16.8945C28.9747 16.8945 28.5966 17.2727 28.5966 17.7392C28.5966 18.2057 28.9747 18.5839 29.4412 18.5839Z" fill="#3F3D56"/>
<path d="M12.3259 18.7695C13.1512 18.7695 13.8203 18.1004 13.8203 17.2751C13.8203 16.4498 13.8203 16.5292 12.3259 15.7807C11.3094 15.2243 10.8315 16.4498 10.8315 17.2751C10.8315 18.1004 11.5006 18.7695 12.3259 18.7695Z" fill="white"/>
<path d="M12.5477 18.5839C13.0142 18.5839 13.3924 18.2057 13.3924 17.7392C13.3924 17.2727 13.0142 16.8945 12.5477 16.8945C12.0812 16.8945 11.703 17.2727 11.703 17.7392C11.703 18.2057 12.0812 18.5839 12.5477 18.5839Z" fill="#3F3D56"/>
<path d="M21.2862 20.2641C22.5226 20.2641 23.5249 19.5951 23.5249 18.7698C23.5249 17.9444 22.5226 17.2754 21.2862 17.2754C20.0498 17.2754 19.0475 17.9444 19.0475 18.7698C19.0475 19.5951 20.0498 20.2641 21.2862 20.2641Z" fill="#3F3D56"/>
<path d="M19.3057 29.565C17.3511 29.5668 14.4745 29.897 12.5483 29.565C8.84478 28.9271 5.67427 29.7414 2.41211 27.8756L3.32278 22.8369C6.62161 24.6235 10.1832 25.8748 13.8746 26.5443C19.2503 27.4654 28.4918 27.1475 37.8886 21.9629L40.0003 27.031C33.1787 30.8011 24.3991 29.565 19.3057 29.565Z" fill="#3F3D56"/>
<path d="M37.1185 21.9609C17.2441 33.6535 5.79108 22.8165 5.79108 22.8165L37.1185 21.9609Z" fill="white"/>
<path opacity="0.1" d="M30.2277 38.418C30.2277 38.418 24.0534 49.2036 30.7581 50.7664C37.4628 52.3293 35.2897 41.6776 35.2897 41.6776C35.2897 41.6776 36.2422 38.6575 37.9134 38.629" fill="black"/>
<path d="M30.2327 38.418C30.2327 38.418 24.0471 49.2065 30.7632 50.7579C37.4792 52.3093 35.2947 41.6691 35.2947 41.6691C35.2947 41.6691 36.2473 38.649 37.9184 38.6204" fill="#3F3D56"/>
<path d="M15.3223 43.8486C15.3223 43.8486 3.74012 39.3435 7.96534 33.9039C12.1906 28.4644 17.2047 38.1239 17.2047 38.1239C17.2047 38.1239 19.8517 39.8804 21.1616 38.8555" fill="#3F3D56"/>
<path d="M43.4982 38.7157C41.3835 52.3376 41.7458 58.0995 27.2855 64C11.944 58.5533 12.8349 51.2649 11.0727 38.7157C9.0188 24.09 8.60546 22.2677 27.2855 22.2677C45.9654 22.2677 44.5557 20.8719 43.4982 38.7157Z" fill="#E5E5E5"/>
<path d="M44.3682 38.7157C42.2535 52.3376 42.6158 58.0995 28.1554 64C12.814 58.5533 13.7049 51.2649 11.9427 38.7157C9.8888 24.09 9.47546 22.2677 28.1554 22.2677C46.8354 22.2677 45.4257 20.8719 44.3682 38.7157Z" fill="#208DD4"/>
<path d="M43.285 32.6188C42.1779 45.1889 42.611 56.9682 29.8049 62.3602C25.6905 62.3602 27.7855 59.6664 27.7855 32.6188C27.7855 22.5309 31.1209 23.6411 35.2353 23.6411C39.3497 23.6411 44.2273 21.9199 43.285 32.6188Z" fill="#3B9EDF"/>
</svg>
