<svg xmlns="http://www.w3.org/2000/svg" viewBox="0 0 146.96 146.96"><defs><style>.cls-1{fill:#6364fa;}.cls-2{fill:#b2b1ff;}.cls-3{fill:#d5d7fd;}</style></defs><g id="Слой_2" data-name="Слой 2"><g id="layer_1" data-name="layer 1"><path class="cls-1" d="M91.74,96.45,50.51,55.22,0,62.81,44.41,31.06a23,23,0,0,1,15.24-4.2L71,27.8,95.07,51.89,119.17,76l.93,11.32a23,23,0,0,1-4.2,15.25L84.15,147Z"/><path class="cls-1" d="M146.91.05a110.89,110.89,0,0,0-30.1,3.52c3.37,11.6,15,23.21,26.58,26.57A111.32,111.32,0,0,0,146.91.05Z"/><path class="cls-2" d="M116.81,3.57C92,9.77,58.48,26.57,43.72,71.7l31.53,31.54c45.14-14.77,61.94-48.25,68.14-73.1C131.79,26.78,120.18,15.17,116.81,3.57Z"/><path class="cls-3" d="M109.56,37.4A19.49,19.49,0,0,0,96.7,31.71a56,56,0,0,1,0,39.08A19.57,19.57,0,0,0,109.56,37.4Z"/><path class="cls-3" d="M96.7,31.71a19.57,19.57,0,1,0,0,39.08A56,56,0,0,0,96.7,31.71Z"/><path class="cls-1" d="M95.71,73.12a21.88,21.88,0,1,1,15.48-6.4h0A21.85,21.85,0,0,1,95.71,73.12Zm0-39.15A17.28,17.28,0,1,0,107.94,39,17.21,17.21,0,0,0,95.71,34Zm13.85,31.12h0Z"/><polygon class="cls-1" points="43.72 71.7 59.48 87.47 75.25 103.24 68.02 116.63 49.17 97.79 30.33 78.94 43.72 71.7"/></g></g></svg>