<svg xmlns="http://www.w3.org/2000/svg" viewBox="0 0 145.82 146.96"><defs><style>.cls-1{fill:#6364fa;}.cls-2{fill:#d5d7fd;}.cls-3{fill:#b2b1ff;}.cls-4{fill:#fff;}</style></defs><g id="Слой_2" data-name="Слой 2"><g id="layer_1" data-name="layer 1"><rect class="cls-1" width="145.82" height="123.04" rx="9.59"/><rect class="cls-2" x="13.67" y="13.67" width="118.48" height="90.28"/><path class="cls-1" d="M48.3,31.6,28.1,56.66a3.42,3.42,0,0,0,0,4.29L48.3,86l5.32-4.29L35.15,58.81,53.62,35.89Z"/><path class="cls-1" d="M117.72,56.66,97.52,31.6l-5.33,4.29,18.48,22.92L92.19,81.73,97.52,86,117.72,61A3.42,3.42,0,0,0,117.72,56.66Z"/><rect class="cls-1" x="45.59" y="55.39" width="54.64" height="6.83" transform="translate(-10.06 102.29) rotate(-66.55)"/><polygon class="cls-1" points="118.48 146.96 27.34 146.96 31.9 135.57 72.91 135.57 113.92 135.57 118.48 146.96"/><polygon class="cls-3" points="93.41 141.26 72.91 141.26 52.4 141.26 59.86 123.04 72.91 123.04 85.96 123.04 93.41 141.26"/><path class="cls-4" d="M76.33,113.41A3.42,3.42,0,1,1,72.91,110,3.42,3.42,0,0,1,76.33,113.41Z"/></g></g></svg>