<svg xmlns="http://www.w3.org/2000/svg" viewBox="0 0 146.96 146.34"><defs><style>.cls-1{fill:#d5d7fd;}.cls-2{fill:#b2b1ff;}.cls-3{fill:#6364fa;}</style></defs><g id="Слой_2" data-name="Слой 2"><g id="layer_1" data-name="layer 1"><path class="cls-1" d="M17.82,52.2a18.62,18.62,0,0,1,28.73-23,33.58,33.58,0,1,1,66.29,10.53,27.82,27.82,0,0,1,5.82-.63,28.31,28.31,0,0,1,0,56.61H22A22,22,0,0,1,17.82,52.2Z"/><path class="cls-2" d="M109.28,79.68a35.8,35.8,0,1,1-35.8-35.81A35.8,35.8,0,0,1,109.28,79.68Z"/><path class="cls-3" d="M58.43,90.17a18.37,18.37,0,0,1,2.13-23.49l-.21,3.87,4.58.25.63-11.42-11.42-.62-.25,4.59,3.33.18a22.92,22.92,0,0,0,16.14,39.08l0-4.59A18.42,18.42,0,0,1,58.43,90.17Z"/><path class="cls-3" d="M92.29,66.56a23,23,0,0,0-18.83-9.82h-.1l0,4.59h.08A18.33,18.33,0,0,1,86.27,92.79l0-4-4.6-.05-.13,11.43L93,100.3l.06-4.59-3.18,0A23,23,0,0,0,92.29,66.56Z"/><path class="cls-2" d="M138.92,130.27H8a8,8,0,1,0,0,16.07H138.92a8,8,0,1,0,0-16.07Z"/><polygon class="cls-3" points="45.64 130.27 30.76 146.34 51.42 146.34 66.3 130.27 45.64 130.27"/><polygon class="cls-1" points="24.97 130.27 10.09 146.34 30.76 146.34 45.64 130.27 24.97 130.27"/><path class="cls-3" d="M8,130.27a8,8,0,1,0,0,16.07h2.05L25,130.27Z"/><polygon class="cls-3" points="86.97 130.27 72.09 146.34 96.16 146.34 96.16 130.27 86.97 130.27"/><polygon class="cls-1" points="66.3 130.27 51.42 146.34 72.09 146.34 86.97 130.27 66.3 130.27"/></g></g></svg>