<svg width="39" height="32" viewBox="0 0 39 32" fill="none" xmlns="http://www.w3.org/2000/svg">
<path fill-rule="evenodd" clip-rule="evenodd" d="M26.1105 0H20.0341H20.0303V6.07645H21.5503V7.59651H23.0704V9.11658H26.1105V15.1968H32.1908V9.11658H35.2309V7.59651H36.751V6.07645H38.271V0H32.1908V4.56019H30.6707V6.08026H27.6306V4.56019H26.1105V0ZM21.5565 31.9999H36.8419V30.4799H38.362V16.8031H32.2817V28.9598H26.1129V16.8031H20.0365V30.4799H21.5565V31.9999ZM0.0038105 16.7935H6.08026V21.3537H7.60032V22.8738H10.6404V21.3537H12.1605V16.7935H18.2408V22.8699H16.7207V24.39H15.2006V25.9101H12.1605V31.9903H6.08026V25.9101H3.04013V24.39H1.52006V22.8699H0V16.7935H0.0038105ZM16.8064 0.0101276H1.52101V1.53019H0.000949092V15.207H6.08121V3.05026H12.2501V15.207H18.3265V1.53019H16.8064V0.0101276Z" fill="white"/>
</svg>
