<svg xmlns="http://www.w3.org/2000/svg" viewBox="0 0 146.4 146.4"><defs><style>.cls-1{fill:#d5d7fd;}.cls-2{fill:#6364fa;}.cls-3{fill:#fff;}.cls-4{fill:#b2b1ff;}</style></defs><g id="Слой_2" data-name="Слой 2"><g id="layer_1" data-name="layer 1"><rect class="cls-1" y="16.01" width="146.4" height="101.35"/><rect class="cls-2" width="146.4" height="16.01"/><path class="cls-3" d="M136,10.86a2.76,2.76,0,0,1-2-.85,2.8,2.8,0,0,1,0-4,2.93,2.93,0,0,1,4,0,2.8,2.8,0,0,1,0,4A2.77,2.77,0,0,1,136,10.86Z"/><path class="cls-3" d="M119.08,8a2.86,2.86,0,0,1,2.86-2.86h0A2.86,2.86,0,0,1,124.8,8h0a2.86,2.86,0,0,1-2.86,2.86h0A2.86,2.86,0,0,1,119.08,8Z"/><path class="cls-3" d="M107.9,10.86a2.88,2.88,0,0,1-2-.85,2.87,2.87,0,0,1,0-4,3,3,0,0,1,4,0,2.8,2.8,0,0,1,0,4A2.79,2.79,0,0,1,107.9,10.86Z"/><path class="cls-2" d="M127,123.41,93.51,90a5.46,5.46,0,0,0-7.7,0l-1.58,1.59a5.44,5.44,0,0,0,0,7.7l33.44,33.44a5.43,5.43,0,0,0,7.69,0L127,131.1A5.43,5.43,0,0,0,127,123.41Z"/><path class="cls-4" d="M121.15,78.77a48.11,48.11,0,1,0-48.1,48.1A48.1,48.1,0,0,0,121.15,78.77Z"/><path class="cls-4" d="M138.07,128.73l-16.79-16.79A51.37,51.37,0,0,1,106.19,127l16.8,16.8a8.84,8.84,0,0,0,12.5,0l2.58-2.58A8.84,8.84,0,0,0,138.07,128.73Z"/><path class="cls-3" d="M103.93,78.77A30.88,30.88,0,1,1,73.05,47.89,30.89,30.89,0,0,1,103.93,78.77Z"/></g></g></svg>