<svg xmlns="http://www.w3.org/2000/svg" viewBox="0 0 148.67 156.2"><defs><style>.cls-1{fill:#d5d7fd;}.cls-2{fill:#b2b1ff;}.cls-3{fill:#6364fa;}</style></defs><g id="Слой_2" data-name="Слой 2"><g id="layer_1" data-name="layer 1"><polygon class="cls-1" points="0 0 0 156.2 117.76 156.2 117.76 24.1 93.67 0 0 0"/><polygon class="cls-2" points="117.76 24.1 93.67 0 93.67 24.1 117.76 24.1"/><rect class="cls-3" x="31.64" y="63.5" width="58.91" height="4.88"/><rect class="cls-3" x="31.64" y="84.42" width="41.82" height="4.88"/><rect class="cls-3" x="31.64" y="105.34" width="22.63" height="4.88"/><rect class="cls-3" x="31.64" y="126.26" width="22.36" height="4.88"/><rect class="cls-3" x="17.45" y="42.58" width="5.35" height="4.88"/><rect class="cls-3" x="17.45" y="63.5" width="5.35" height="4.88"/><rect class="cls-3" x="31.64" y="21.66" width="37.36" height="4.88"/><rect class="cls-3" x="31.64" y="42.58" width="58.91" height="4.88"/><rect class="cls-3" x="17.45" y="21.66" width="5.35" height="4.88"/><rect class="cls-3" x="17.45" y="84.42" width="5.35" height="4.88"/><rect class="cls-3" x="17.45" y="105.34" width="5.35" height="4.88"/><rect class="cls-3" x="17.45" y="126.26" width="5.35" height="4.88"/><rect class="cls-3" x="96.16" y="36.54" width="14.31" height="95.43" transform="translate(116.78 216.9) rotate(-135)"/><rect class="cls-2" x="102.27" y="39.07" width="7.16" height="95.43" transform="translate(119.33 223) rotate(-135)"/><path class="cls-1" d="M147.24,43.56,144,40.34a4.88,4.88,0,0,0-6.91,0L132,45.46l10.12,10.12,5.12-5.12A4.89,4.89,0,0,0,147.24,43.56Z"/><polygon class="cls-2" points="58.88 128.7 74.64 123.06 64.51 112.94 58.88 128.7"/><polygon class="cls-3" points="58.88 128.7 69.25 124.99 62.59 118.33 58.88 128.7"/></g></g></svg>