<svg xmlns="http://www.w3.org/2000/svg" viewBox="0 0 144.25 146.4"><defs><style>.cls-1{fill:#6364fa;}.cls-2{fill:#d5d7fd;}.cls-3{fill:#b2b1ff;}</style></defs><g id="Слой_2" data-name="Слой 2"><g id="layer_1" data-name="layer 1"><path class="cls-1" d="M124.88,58.39a2.82,2.82,0,0,0,5.64,0,58.4,58.4,0,0,0-116.79,0,2.82,2.82,0,1,0,5.63,0,52.76,52.76,0,0,1,105.52,0Z"/><path class="cls-1" d="M127.7,81.8a2.82,2.82,0,0,0-2.82,2.82,52.82,52.82,0,0,1-52.76,52.76,2.82,2.82,0,0,0,0,5.64,58.47,58.47,0,0,0,58.4-58.4A2.82,2.82,0,0,0,127.7,81.8Z"/><path class="cls-2" d="M24.22,51.64H14.5a5.64,5.64,0,0,0-5.63,5.63V85.75a5.64,5.64,0,0,0,5.63,5.63h9.72a2.26,2.26,0,0,0,2.26-2.25V53.89A2.25,2.25,0,0,0,24.22,51.64Z"/><path class="cls-2" d="M129.75,51.64H120a2.25,2.25,0,0,0-2.25,2.25V89.13A2.25,2.25,0,0,0,120,91.38h9.73a5.65,5.65,0,0,0,5.63-5.63V57.27A5.65,5.65,0,0,0,129.75,51.64Z"/><path class="cls-3" d="M120,51.64a2.25,2.25,0,0,0-2.25,2.25V89.13A2.25,2.25,0,0,0,120,91.38h2.81V51.64Z"/><path class="cls-3" d="M24.22,51.64h-2.8V91.38h2.8a2.26,2.26,0,0,0,2.26-2.25V53.89A2.25,2.25,0,0,0,24.22,51.64Z"/><path class="cls-1" d="M0,65.71v11.6A6.61,6.61,0,0,0,6.59,83.9H8.87V59.11H6.59A6.62,6.62,0,0,0,0,65.71Z"/><path class="cls-1" d="M137.65,59.11h-2.27V83.9h2.27a6.61,6.61,0,0,0,6.6-6.59V65.71A6.62,6.62,0,0,0,137.65,59.11Z"/><path class="cls-1" d="M80.2,134H62.73a6.2,6.2,0,1,0,0,12.4H80.2a6.2,6.2,0,0,0,0-12.4Z"/><polygon class="cls-3" points="94.54 66.96 94.54 81.59 85.35 81.59 85.35 96.71 65.78 81.59 54.21 81.59 54.21 104.5 63.4 104.5 63.4 115.18 77.53 104.5 106.38 104.5 106.38 66.96 94.54 66.96"/><polygon class="cls-2" points="37.87 39.54 37.87 77.08 66.72 77.08 80.84 87.76 80.84 77.08 90.03 77.08 90.03 39.54 37.87 39.54"/></g></g></svg>